<svg width="30" height="30" viewBox="0 0 30 30" fill="none" xmlns="http://www.w3.org/2000/svg">
<path d="M16.9461 12.491L14.8565 16.3265L12.6306 12.7356L14.7201 9.07228L16.9461 12.491Z" fill="black" stroke="black" stroke-width="0.481193"/>
<path d="M21.6791 13.7143C22.2317 8.09132 23.2393 4.35536 21.6791 0C25.6445 3.51029 28.8298 10.5634 29.5124 20.5417L28.0823 18.7866C21.3541 20.8017 17.6487 23.4995 16.6086 30C15.8546 22.3294 17.7462 17.3348 18.7864 15.7963C18.7864 22.5569 18.5913 17.1921 21.6791 13.7143Z" fill="black"/>
<path d="M7 14.5C6.44745 8.87703 6.27292 4.35536 7.83307 0C3.86768 3.51029 0.68237 10.5634 -0.000196457 20.5417L1.42994 18.7866C8.1581 20.8017 11.8635 23.4995 12.9036 30C13.6576 22.3294 11.766 17.3348 10.7259 15.7963C10.7259 22.5569 10.0878 17.9778 7 14.5Z" fill="black"/>
</svg>
